# xmcd
#
# Track frame offsets: 
#        200
#        17622
#        37182
#        61637
#        79500
#        100647
#        119935
#        145880
#        168317
#        180852
#
# Disc length: 2702 seconds
#
# Revision: 2
# Processed by: cddbd v1.5.2PL0 Copyright (c) Steve Scherf et al.
# Submitted via: ExactAudioCopy v0.99pb5
#
DISCID=770a8c0a
DTITLE=Chris Lizotte - Chris Lizotte and Soul Motion
DYEAR=1992
DGENRE=Blues
TTITLE0=You Keep On Givin' To Me
TTITLE1=When It Dawned On Me
TTITLE2=Change My Heart Oh God
TTITLE3=Brother It's Alright
TTITLE4=Don't Let My Heart Turn Back To Stone
TTITLE5=Shine Your Light
TTITLE6=Come Unto Me
TTITLE7=At The Cross Of Jesus
TTITLE8=I Cried Like A Baby
TTITLE9=Tell Me
EXTD=
EXTT0=
EXTT1=
EXTT2=
EXTT3=
EXTT4=
EXTT5=
EXTT6=
EXTT7=
EXTT8=
EXTT9=
PLAYORDER=
